# xmcd
#
# Track frame offsets:
#	150
#	18463
#	31622
#	50165
#	67606
#	92229
#	109227
#	131076
#	150190
#	177923
#
# Disc length: 2547 seconds
# Revision: 0
# Processed by: cddbd v1.5.2PL0 Copyright (c) Steve Scherf et al.
# Submitted via: dBpowerAMP V12.0
#
DISCID=7609f10a
DTITLE=The Riotous Brothers - The Tree 
DYEAR=2014
DGENRE=
TTITLE0=Now More Than Ever
TTITLE1=Honey Not Vinegar
TTITLE2=Me And You
TTITLE3=Second Time Around
TTITLE4=Fever
TTITLE5=Something's Got To Change
TTITLE6=Cigarettes
TTITLE7=Memory Of Our Love
TTITLE8=Proving Too Hard
TTITLE9=I Wanna Know
EXTD=
EXTT0=
EXTT1=
EXTT2=
EXTT3=
EXTT4=
EXTT5=
EXTT6=
EXTT7=
EXTT8=
EXTT9=
PLAYORDER=
